<?xml version="1.0" encoding="UTF-8"?>
<svg id="Layer_2" data-name="Layer 2" xmlns="http://www.w3.org/2000/svg" viewBox="0 0 561.72 147.97">
  <g id="Layer_1-2" data-name="Layer 1">
    <g>
      <path d="M92.62,33.28c-1.21-5.84-3.62-10.87-7.65-15.29-8.65-9.26-22.54-13.08-35.22-12.88-13.28.2-28.37,5.03-36.83,16.1-5.03,6.24-6.84,13.68-6.24,21.53,3.62,49.3,82.71,10.67,92.37,55.74,6.44,29.78-21.93,47.49-48.7,47.49-20.53,0-45.48-11.67-47.89-34.41l-.2-1.41,3.22-.4.2,1.41c2.21,21.13,25.76,31.79,44.88,31.79,24.55,0,51.11-15.9,45.28-43.87C86.79,57.23,7.3,95.46,3.68,42.94c-.8-8.45,1.41-16.7,6.64-23.54C30.84-7.17,88.8-3.75,95.64,32.68l.2,1.61-3.02.6-.2-1.61Z" fill="#fff" stroke="#fff" stroke-miterlimit="10" stroke-width="4"/>
      <path d="M138.5,141.34h75.66v3.22h-78.88V3.9h3.22v137.44Z" fill="#fff" stroke="#fff" stroke-miterlimit="10" stroke-width="4"/>
      <path d="M250.18,141.54h74.86v3.02h-78.08V3.9h77.68v3.02h-74.46v65.6h72.85v3.22h-72.85v65.8Z" fill="#fff" stroke="#fff" stroke-miterlimit="10" stroke-width="4"/>
      <path d="M363.07,141.54h74.86v3.02h-78.08V3.9h77.68v3.02h-74.46v65.6h72.85v3.22h-72.85v65.8Z" fill="#fff" stroke="#fff" stroke-miterlimit="10" stroke-width="4"/>
    </g>
    <path d="M559.72,4.03v140.66h-3.02V4.03h3.02ZM552.07,75.87l-78.08,68.82h-4.63s79.89-70.63,79.89-70.63L478.02,4.03h4.02s70.03,68.62,70.03,68.62v3.22Z" fill="#fff" stroke="#fff" stroke-miterlimit="10" stroke-width="4"/>
  </g>
</svg>